<svg viewBox="0 0 24 24" fill="none" xmlns="http://www.w3.org/2000/svg">
  <path d="M12 3C7.58 3 4 4.79 4 7V17C4 19.21 7.58 21 12 21C16.42 21 20 19.21 20 17V7C20 4.79 16.42 3 12 3ZM18 17C18 17.5 15.87 19 12 19C8.13 19 6 17.5 6 17V14.77C7.61 15.55 9.72 16 12 16C14.28 16 16.39 15.55 18 14.77V17ZM18 12.77C16.39 13.55 14.28 14 12 14C9.72 14 7.61 13.55 6 12.77V10.77C7.61 11.55 9.72 12 12 12C14.28 12 16.39 11.55 18 10.77V12.77ZM12 10C8.13 10 6 8.5 6 8C6 7.5 8.13 6 12 6C15.87 6 18 7.5 18 8C18 8.5 15.87 10 12 10Z" fill="#5D00AE"/>
</svg>